HIERARCHY
ROOT Hips
{
  OFFSET 0 0 0
  CHANNELS 6 Xposition Yposition Zposition Zrotation Yrotation Xrotation
  JOINT LeftThigh
  {
    OFFSET 8.409438 0 -5.917753
    CHANNELS 3 Zrotation Yrotation Xrotation
    JOINT LeftLeg
    {
      OFFSET 0 0 -42.358652
      CHANNELS 3 Zrotation Yrotation Xrotation
      JOINT LeftFoot
      {
        OFFSET 0 0 -39.357303
        CHANNELS 3 Zrotation Yrotation Xrotation
      }
    }
  }
  JOINT RightThigh
  {
    OFFSET -8.409438 0 -5.917753
    CHANNELS 3 Zrotation Yrotation Xrotation
    JOINT RightLeg
    {
      OFFSET 0 0 -42.358652
      CHANNELS 3 Zrotation Yrotation Xrotation
      JOINT RightFoot
      {
        OFFSET 0 0 -39.357303
        CHANNELS 3 Zrotation Yrotation Xrotation
      }
    }
  }
  JOINT SpineLow
  {
    OFFSET 0 0 4.719101
    CHANNELS 3 Zrotation Yrotation Xrotation
    JOINT SpineMid
    {
      OFFSET 0 0 12.899191
      CHANNELS 3 Zrotation Yrotation Xrotation
      JOINT Chest
      {
        OFFSET 0 0 12.899191
        CHANNELS 3 Zrotation Yrotation Xrotation
        JOINT LeftShoulder
        {
          OFFSET 7.550562 1.41573 9.438202
          CHANNELS 3 Zrotation Yrotation Xrotation
          JOINT LeftArm
          {
            OFFSET 9.155056 0 4.247191
            CHANNELS 3 Zrotation Yrotation Xrotation
            JOINT LeftForearm
            {
              OFFSET 0 0 25.771955
              CHANNELS 3 Zrotation Yrotation Xrotation
              JOINT LeftHand
              {
                OFFSET 0 0 25.197169
                CHANNELS 3 Zrotation Yrotation Xrotation
              }
            }
          }
        }
        JOINT RightShoulder
        {
          OFFSET -7.550562 1.41573 9.438202
          CHANNELS 3 Zrotation Yrotation Xrotation
          JOINT RightArm
          {
            OFFSET -9.155056 0 4.247191
            CHANNELS 3 Zrotation Yrotation Xrotation
            JOINT RightForearm
            {
              OFFSET 0 0 -25.771955
              CHANNELS 3 Zrotation Yrotation Xrotation
              JOINT RightHand
              {
                OFFSET 0 0 -25.197169
                CHANNELS 3 Zrotation Yrotation Xrotation
              }
            }
          }
        }
        JOINT Neck
        {
          OFFSET 0 0 15.101124
          CHANNELS 3 Zrotation Yrotation Xrotation
          JOINT Head
          {
            OFFSET 0 0 11.325843
            CHANNELS 3 Zrotation Yrotation Xrotation
            End Site
            {
              OFFSET 0 0 14.157303
            }
          }
        }
      }
    }
  }
}
MOTION
Frames: 16
Frame Time: 0.0
0.0  89.887642  0.0  -5.419626  44.403314  -95.717278  -11.609578  -14.6024  -11.104384  -21.091952  6.34174  23.798322  2.345096  0.924698  3.496241  -31.85819  10.169192  3.455823  -14.683069  6.806854  13.509905  3.790553  1.353361  0.274335  1.949991  -2.373199  -0.328638  5.37813  -6.455307  -1.09262  5.37813  -6.455307  -1.09262  9.632631  19.251278  15.785257  145.156633  14.747141  176.673619  -26.981588  40.182154  90.497059  69.943242  -2.576719  40.72534  13.107772  11.945927  13.542633  -135.32844  67.692771  164.06201  -29.21221  5.547877  -112.049944  79.554102  20.268993  17.376513  -29.555927  7.791562  4.872285  -22.196403  5.624175  4.039152  
0.0  89.887642  0.0  -5.376797  43.73391  -95.635308  -11.330466  -14.662205  -10.987242  -20.872027  6.269766  23.758916  2.381005  0.929647  3.506924  -31.827079  10.270666  3.120438  -14.228594  6.700428  13.726618  3.872017  1.328573  0.304881  1.831364  -2.353507  -0.332287  5.052769  -6.403429  -1.089446  5.05277  -6.40343  -1.089446  10.127083  19.291479  15.514593  144.908668  15.583326  176.953726  -26.718  39.767252  90.778783  70.389441  -2.237506  41.253254  13.375114  11.919256  13.514646  -135.844542  68.58374  163.461737  -29.348226  5.69523  -111.77453  79.484117  20.141461  17.062558  -28.791532  7.775912  4.950024  -21.625028  5.614072  4.08635  
0.0  89.887642  0.0  -5.340759  43.07748  -95.50454  -10.856188  -14.806093  -10.892978  -20.509904  6.189919  23.82754  2.246914  0.904684  3.404248  -31.903752  10.40208  2.709225  -13.507839  6.51256  14.032625  3.864569  1.262295  0.319616  1.719212  -2.287788  -0.387102  4.748824  -6.222001  -1.223813  4.748824  -6.222001  -1.223813  10.630415  18.967567  15.423963  144.384147  16.413995  177.223649  -26.592873  39.186447  91.026898  70.643494  -1.864088  41.606788  13.691168  11.448088  13.609444  -136.804595  69.642237  162.536073  -29.567565  5.98166  -111.527454  79.374056  19.976218  16.629971  -28.026967  7.74627  5.285538  -21.056964  5.581866  4.32647  
0.0  89.887642  0.0  -5.329919  42.240375  -95.417862  -10.322717  -14.937617  -10.802109  -20.312088  6.14597  23.755392  2.271954  0.918986  3.405677  -31.849813  10.44833  2.318795  -13.051045  6.427088  14.290728  3.940144  1.252442  0.351616  1.732147  -2.286298  -0.445258  4.789701  -6.213431  -1.384219  4.789701  -6.213431  -1.384219  10.310461  19.159222  15.445854  144.108152  17.332791  177.493362  -26.35663  38.364864  91.397668  71.016206  -1.721249  41.549607  13.247945  11.473186  13.709879  -137.829786  70.974455  161.421671  -29.812409  6.314781  -111.313079  79.191602  19.893366  16.154528  -27.650108  7.852092  5.477975  -20.777401  5.655659  4.470513  
0.0  89.887642  0.0  -5.259057  41.553008  -95.262317  -9.708171  -15.060385  -10.697073  -20.323996  6.122077  23.546538  2.28749  0.939482  3.398194  -31.909658  10.579182  1.859659  -12.721037  6.296246  14.596936  3.997518  1.225116  0.378839  1.770295  -2.275709  -0.543876  4.903135  -6.176277  -1.657101  4.903134  -6.176277  -1.657101  9.628752  19.293054  15.647193  143.072278  18.157328  177.947269  -27.100586  37.111808  91.409744  71.472514  -1.575933  41.345613  12.590796  11.326495  13.948797  -139.757738  72.444866  159.534097  -29.941919  6.615322  -111.103502  78.993015  19.803268  15.592545  -27.407504  8.028988  5.805476  -20.600408  5.775977  4.720773  
0.0  89.887642  0.0  -5.246096  40.545621  -95.164642  -8.939583  -15.200661  -10.587969  -20.220666  6.060872  23.420815  2.324291  0.964397  3.401561  -31.747284  10.576352  1.406229  -12.34358  6.243957  14.913628  4.130913  1.23909  0.41693  1.827619  -2.252871  -0.6265  5.06705  -6.105975  -1.886905  5.067049  -6.105974  -1.886905  9.012214  19.353495  15.842087  142.990828  19.14931  178.316684  -26.727467  35.827715  91.88003  72.076005  -1.531891  40.951144  11.950395  11.074922  14.140375  -142.151834  74.054082  157.093433  -29.90466  6.823148  -110.861722  78.739839  19.721371  14.928767  -27.0709  8.093666  6.134624  -20.353061  5.812953  4.965849  
0.0  89.887642  0.0  -5.176394  39.647808  -94.997809  -8.36026  -15.213436  -10.529248  -20.22184  5.999434  23.268419  2.510569  0.99382  3.457914  -31.688506  10.624629  0.899309  -11.905471  6.196239  15.245528  4.132228  1.200281  0.440435  1.877094  -2.244095  -0.669757  5.206249  -6.077065  -2.009199  5.206249  -6.077066  -2.009199  8.287685  19.593993  15.729459  142.779282  20.076257  178.708565  -26.368107  34.36169  92.311644  72.655102  -1.524882  40.581581  11.347208  10.932608  14.16732  -145.68518  75.671839  153.715605  -29.707835  6.940734  -110.554622  78.520963  19.601481  14.092822  -26.770736  8.154128  6.299693  -20.130748  5.853937  5.088031  
0.0  89.887642  0.0  -5.142878  38.522954  -94.895987  -7.534509  -15.333742  -10.408741  -20.164237  5.94025  23.128205  2.616967  1.027144  3.474078  -31.506289  10.598942  0.39904  -11.41216  6.154333  15.574177  4.300107  1.198722  0.483281  1.922205  -2.181675  -0.730147  5.33271  -5.900228  -2.173385  5.33271  -5.900228  -2.173385  7.787846  19.462944  15.67993  142.650258  21.021572  178.990211  -25.971931  32.831758  92.75835  73.282918  -1.624251  40.096637  10.783727  10.428209  14.268591  -149.967493  77.347174  149.506796  -29.350957  6.870614  -110.166863  78.354015  19.444438  12.899616  -26.329491  8.039315  6.644032  -19.804917  5.756963  5.335262  
0.0  89.887642  0.0  -5.131236  37.370447  -94.808925  -6.886928  -15.376824  -10.30342  -19.881846  5.823171  23.150252  2.631649  1.009427  3.409097  -31.185214  10.576659  -0.031328  -10.829197  6.101433  15.888047  4.282708  1.152643  0.501583  2.264755  -2.027994  -0.805084  6.270527  -5.46146  -2.393595  6.270527  -5.46146  -2.393595  5.112285  18.909614  15.359542  142.543299  21.972113  179.321052  -25.575656  31.353354  93.135047  73.906205  -1.777326  39.407226  8.44109  9.330213  14.199663  -155.65167  78.912411  144.248011  -28.851008  6.615433  -109.731628  78.342234  19.181303  11.583075  -26.929932  7.577971  7.155916  -20.260032  5.381595  5.708214  
0.0  89.887642  0.0  -5.087979  36.227841  -94.71108  -6.17739  -15.485359  -10.140649  -19.692346  5.718423  23.017759  2.697829  1.030775  3.421814  -30.99478  10.566004  -0.507553  -10.229489  6.00644  16.174586  4.400363  1.128404  0.538151  2.813191  -1.822364  -0.864845  7.766732  -4.872036  -2.57671  7.766732  -4.872037  -2.57671  1.047184  18.114402  14.872841  142.415932  22.8899  179.681652  -25.29227  29.904684  93.44297  74.491078  -1.897364  38.636655  4.416223  8.211963  13.841456  -162.971891  80.582202  137.114895  -28.289064  6.329736  -109.281544  78.359043  18.792872  10.386235  -28.338332  6.878006  7.608032  -21.317711  4.818938  6.035194  
0.0  89.887642  0.0  -5.089718  35.052179  -94.648796  -5.577144  -15.552926  -9.937432  -19.453395  5.576218  22.899149  2.835358  1.028734  3.453748  -30.502564  10.460723  -0.819695  -9.690389  5.962175  16.376037  4.268275  1.061136  0.552334  3.200315  -1.621773  -0.807931  8.812463  -4.316492  -2.421739  8.812463  -4.316492  -2.421739  -2.267186  17.337601  13.722019  142.181752  23.690751  179.99298  -25.211193  28.60173  93.612824  75.144181  -2.049681  37.728311  1.511887  7.172639  13.078524  -173.327157  82.285101  127.024436  -27.583662  6.090087  -108.763819  78.404636  18.279935  9.469464  -29.131941  5.984342  7.761484  -21.909196  4.130086  6.11884  
0.0  89.887642  0.0  -5.049377  33.931118  -94.58966  -5.00034  -15.643345  -9.687859  -19.190304  5.42993  22.752623  2.916907  1.038859  3.473679  -30.269086  10.452205  -1.165074  -9.047113  5.837526  16.526979  4.396135  1.024336  0.583128  3.509733  -1.424655  -0.739896  9.645826  -3.776948  -2.226413  9.645826  -3.776948  -2.226413  -5.032882  16.518816  12.776046  142.003058  24.522443  -179.708128  -25.067095  27.539942  93.798835  75.754885  -2.170598  36.819338  -1.049884  6.140522  12.365011  169.93841  83.716376  110.45778  -26.750449  5.80296  -108.179762  78.326167  17.76571  8.677871  -29.691618  5.119255  7.865997  -22.324077  3.467415  6.162462  
0.0  89.887642  0.0  -5.041912  32.835178  -94.568735  -4.561197  -15.704357  -9.404449  -18.705559  5.201663  22.729868  2.92884  1.024807  3.445274  -29.793725  10.36002  -1.37625  -8.342305  5.705178  16.639243  4.298233  0.975731  0.599358  3.71288  -1.316063  -0.682714  10.193781  -3.482497  -2.064712  10.193781  -3.482497  -2.064713  -7.219609  16.231824  12.05351  141.643973  25.310856  -179.421066  -25.25866  26.566026  93.774013  76.333084  -2.268362  35.867836  -2.844544  5.422501  11.922522  145.33866  84.291143  86.191371  -25.706186  5.367882  -107.532648  78.101661  17.346378  7.811175  -29.895571  4.55847  7.870411  -22.472883  3.042757  6.14085  
0.0  89.887642  0.0  -5.016388  31.739526  -94.561294  -4.134171  -15.787525  -9.091496  -18.327364  5.008209  22.593497  3.005315  1.042942  3.469859  -29.34137  10.310853  -1.594431  -7.836486  5.605087  16.704883  4.34397  0.94521  0.628013  3.954614  -1.15189  -0.604932  10.844685  -3.039863  -1.83775  10.844685  -3.039863  -1.837751  -9.603149  15.618537  11.29887  141.368425  26.105354  -179.241637  -25.301491  25.638736  93.805579  76.761323  -2.326559  34.982323  -5.172106  4.480776  11.428579  119.455992  83.830018  60.41741  -24.372428  4.624788  -106.815676  77.781182  16.929019  6.558476  -30.22279  3.785727  7.917851  -22.712342  2.454917  6.141794  
0.0  89.887642  0.0  -5.035995  30.536774  -94.611026  -3.538601  -15.927927  -8.692454  -17.872197  4.815657  22.509872  3.019721  1.020457  3.421732  -28.510635  10.123997  -1.667227  -7.351017  5.523894  16.750521  4.234731  0.897404  0.629683  3.941198  -1.057299  -0.519312  10.80099  -2.796518  -1.588096  10.800989  -2.796519  -1.588095  -10.397902  15.381721  10.703597  141.11855  26.883744  -179.100795  -25.604729  24.552435  93.701313  77.084792  -2.411188  34.169489  -5.781278  3.843742  11.203735  100.221371  82.424525  41.297396  -22.867279  3.549993  -106.04488  77.805119  16.080721  5.169329  -29.601876  3.253728  7.87293  -22.241681  2.064669  6.078023  
0.0  89.887642  0.0  -5.018257  29.432806  -94.607343  -3.146534  -16.035161  -8.357704  -17.431109  4.622994  22.356892  3.094537  1.032291  3.436244  -27.842851  10.015367  -1.806551  -7.039991  5.463442  16.744434  4.265823  0.887416  0.648236  3.823017  -1.245959  -0.491712  10.482845  -3.318088  -1.53813  10.482845  -3.318089  -1.53813  -10.368796  16.925905  10.626856  140.949842  27.688924  -178.967718  -25.687665  23.416373  93.705323  77.420112  -2.510566  33.407557  -5.793802  5.030555  11.526619  87.546773  80.413701  28.744374  -21.457142  2.547097  -105.219487  78.138201  14.905777  4.062112  -28.675554  3.793669  7.473136  -21.548951  2.501253  5.796417  
